<?xml version="1.0" standalone="no"?>
<svg version="1.0" xmlns="http://www.w3.org/2000/svg"
     width="2133.000000pt" height="2133.000000pt" viewBox="0 0 2133.000000 2133.000000"
     preserveAspectRatio="xMidYMid meet">
    <g transform="translate(0.000000,2133.000000) scale(0.100000,-0.100000)">
        <defs>
            <linearGradient id="g" x1="-300%" x2="-200%" y1="0" y2="0"><stop offset="-10%" stop-opacity=".1"/>
                <stop offset="30%" stop-opacity=".07"/>
                <stop offset="70%" stop-opacity=".07"/>
                <stop offset="110%" stop-opacity=".1"/>
                <animate attributeName="x1" from="-300%" to="1200%" dur="3s" repeatCount="indefinite"/>
                <animate attributeName="x2" from="-200%" to="1300%" dur="3s" repeatCount="indefinite"/>
            </linearGradient>
        </defs>
        <path fill="url(#g)" d="M15175 19011 c-71 -18 -123 -60 -148 -121 -50 -119 -66 -454 -32
-645 15 -87 61 -266 81 -318 4 -12 -25 4 -77 41 -481 344 -1086 561 -1704 613
-169 14 -489 7 -665 -16 -331 -42 -759 -153 -1139 -294 -815 -305 -1575 -770
-2329 -1427 -194 -169 -633 -608 -810 -811 -656 -751 -1154 -1549 -1467 -2347
-107 -273 -210 -607 -250 -808 l-17 -83 -77 -52 c-264 -174 -507 -424 -663
-680 -39 -63 -56 -83 -73 -83 -47 0 -182 -42 -274 -85 -651 -309 -1487 -1396
-2006 -2610 -406 -949 -608 -1927 -565 -2740 22 -424 62 -642 145 -780 227
-378 688 -358 1380 60 304 183 731 505 1048 788 51 46 77 64 77 52 0 -40 44
-408 71 -600 316 -2200 1191 -3732 2619 -4581 l52 -31 -60 -22 c-129 -49 -265
-167 -329 -286 -70 -133 -92 -302 -54 -424 45 -145 159 -234 351 -275 17 -4
31 -19 44 -48 25 -55 106 -135 172 -170 156 -84 362 -77 517 16 l59 35 53 -58
c180 -193 505 -200 692 -14 40 41 67 83 118 188 120 247 227 327 495 372 101
17 99 17 315 -2 94 -8 196 -15 229 -15 200 0 381 -121 476 -318 23 -48 52
-107 64 -131 51 -106 174 -202 301 -236 175 -45 395 25 494 157 l27 36 54 -34
c161 -101 341 -111 518 -27 66 31 150 111 181 171 15 30 29 43 49 47 126 26
205 67 276 147 111 122 124 325 35 519 -18 38 -30 71 -28 72 2 2 53 25 113 53
261 117 655 362 896 555 234 187 490 431 676 645 l71 81 37 -75 c112 -225 270
-480 388 -627 75 -93 203 -217 271 -264 120 -82 260 -126 377 -118 241 16 421
173 713 617 399 610 686 1378 841 2250 204 1151 148 2414 -146 3259 -43 124
-154 361 -212 451 -52 82 -70 220 -63 480 6 197 17 287 91 775 87 566 101 849
60 1225 -11 105 -12 160 -4 250 17 191 24 812 11 1060 -77 1493 -452 3033
-1028 4220 -46 96 -104 231 -127 300 -108 316 -218 537 -525 1052 -238 402
-322 568 -386 763 -63 193 -82 413 -50 590 19 103 19 147 0 193 -37 88 -142
144 -230 123z"/>
    </g>
</svg>
